<?xml version="1.0" encoding="utf-8"?>
<!-- Generator: Adobe Illustrator 22.1.0, SVG Export Plug-In . SVG Version: 6.00 Build 0)  -->
<svg version="1.1" id="Layer_1" xmlns="http://www.w3.org/2000/svg" xmlns:xlink="http://www.w3.org/1999/xlink" x="0px" y="0px"
	 viewBox="0 0 600 600" style="enable-background:new 0 0 600 600;" xml:space="preserve">
<style type="text/css">
	.st0{fill:#CBCBCB;}
	.st1{fill:#C9291D;}
	.st2{fill-rule:evenodd;clip-rule:evenodd;fill:#FFFFFF;}
	.st3{fill:#333333;}
	.st4{fill:#FFFFFF;}
</style>
<g>
	<g>
		<g>
			<path d="M96.1,404.3l99.6-30.1l-19-63.1l-99.6,30.1l29.2,25.6L96.1,404.3z"/>
		</g>
	</g>
</g>
<g>
	<g>
		<g>
			<path d="M496.6,366.8l29.2-25.6l-99.6-30.1l-19,63.1l99.6,30.1L496.6,366.8z"/>
		</g>
	</g>
</g>
<path class="st0" d="M302,88c-63.2,0-120.1,7.7-160.3,19.9C136.8,138.2,101.2,399.4,302,515c200.9-115.6,165.2-376.8,160.3-407.1
	C422.1,95.7,365.2,88,302,88z"/>
<path class="st1" d="M158.4,123.1c-7.1,61.1-18.2,269.6,143.6,372.4c161.8-102.8,150.7-311.3,143.6-372.4
	c-39.2-9.9-90.6-15.5-143.6-15.5C248.9,107.6,197.6,113.2,158.4,123.1z"/>
<path class="st2" d="M293.8,431.4c-0.2,0.5-0.5,0.9-0.8,1.3c-0.6,0.6-1.5,0.4-2.4,0.1c-0.1,0.1-0.2,0.2-0.3,0.3
	c-5.4,5.3-10.8,10.7-16.2,16c-0.7,0.7-1.6,0.9-2.7,0.5c-1.5-0.5-2.6-1.5-3.2-3c-0.3-0.9-0.2-1.6,0.3-2.2c0.7-0.7,1.5-1.5,2.2-2.3
	c0.2-0.2,0.4-0.5,0.7-0.7c-1.6-1.6-3.1-3.1-4.5-4.7c-1.1-1.2-1.6-1.3-0.4-2.7c0.1-0.2,0.3-0.3,0.3-0.6c0-0.2,0-0.6-0.1-0.8
	c-0.5-0.6-1.1-1.3-1.7-1.6c-0.4-0.2-1,0.3-1.5,0.5c-0.1,0-0.3,0.1-0.4,0.2c-0.5,0.4-1,0.3-1.5-0.2c-1.3-1.2-2.6-2.4-3.8-3.6
	c0.1-0.3,0.1-0.5,0.2-0.6c1-1.2,2.1-2.3,3.2-3.5c0.3-0.4,0.8-0.3,1.2,0.2c1.1,1,2.2,2,3.4,2.9c0.3,0.3,0.7,0.6,1.1,0.7
	c0.8,0.3,1.5,0.1,1.9-0.5c0.5-0.6,0.2-1.4-0.2-2.1c-0.6-0.8-1.2-1.6-1.9-2.4c-0.6-0.7-1.3-1.4-2-2.2c1.1-1.5,2.4-2.6,3.7-3.8
	c0.4-0.4,0.9-0.2,1.4,0.2c1.1,1,2.1,1.9,3.2,2.9c0.9,0.9,1,1.2,0.6,2.2c-0.1,0.2-0.1,0.3-0.2,0.5c-0.1,0.6,0.1,1.1,0.6,1.6
	c0.6,0.5,1,0.4,1.5,0.1c0.1-0.1,0.2-0.1,0.4-0.2c0.8-0.4,1.1-0.4,1.9,0.4c0.9,0.9,1.8,1.9,2.7,2.8c0.8,0.8,1.6,1.6,2.5,2.4
	c0.1,0,0.2,0,0.3-0.1c0.6-0.6,1.2-1.2,1.8-1.8c0.4-0.3,0.5-0.7,0.4-1.3c-0.3-1.5,0.3-2.4,1.7-2.7c0.6-0.1,1.3-0.2,1.9-0.3
	c0.5-0.1,0.9-0.4,0.7-1.1c-0.2-1,0.3-1.7,1-2.1c0.4-0.3,0.9-0.5,1.5-0.7c1.2-0.4,2.2-1.1,3-1.9c7.8-7.7,15.7-15.4,23.6-23.1
	c0.8-0.7,1-1.6,0.7-2.7c-0.1-0.5-0.3-1.1-0.5-1.6c-0.7-1.8-1.4-3.6-2.1-5.5c-0.9-2.3-1.1-4.5-0.3-6.5c0.3-0.8,0.6-1.7,1.1-2.4
	c2.1-3.6,5.5-5,10.1-4.1c1.3,0.2,2.7,0.7,4,1.2c2.7,1.1,5.4,2.5,7.6,4.6c3.8,3.7,6,8,7,12.7c0.5,2.5,0,4.8-1.3,6.7
	c-1.2,1.8-3,2.9-5,3.8c-2,0.8-4.1,0.7-6.3,0c-1.2-0.4-2.4-0.8-3.6-1.2c-1.2-0.4-2.3-0.7-3.5-1c-1.1-0.3-2-0.1-2.7,0.7
	c-0.6,0.8-1.4,1.6-2.1,2.3c-6.7,6.7-13.3,13.5-20,20.2c-1.5,1.5-2.6,3.2-3.4,5.1c-0.6,1.3-1.5,2.3-3.3,1.7
	C294.4,429.7,294.2,430.6,293.8,431.4z M335.2,384.2c-1.1-0.3-1.8-0.8-2.2-2.1c-1-3.3-4.4-5.9-7.8-6c-0.5,0-1,0-1.5,0
	c-3.1,0.2-4.7,3.1-3.5,6.3c0,0.1,0.1,0.2,0.1,0.3c1.5,3.6,3.1,4.4,6.2,5.1c2.7,0.6,2.7,0.5,3.4,3.2c1,3.9,3.8,6.1,7.2,6.3
	c2.1,0.1,3.9-0.7,4.5-2.7c0.5-1.5,0.4-3.2-0.3-5c-0.5-1.3-1.2-2.4-2.3-3.4C337.9,385.3,336.6,384.6,335.2,384.2z"/>
<path class="st2" d="M334.5,444.2c0.1,0.1,0.2,0.1,0.3,0.2c0.5,0.2,0.6,0.6,0.7,1.1c0.1,1,0.3,2,0.4,2.9c0.1,0.5-0.5,1-1,1
	c-1-0.1-1.9-0.3-2.9-0.4c-0.4-0.1-0.8-0.2-0.9-0.6c-0.1-0.1-0.2-0.2-0.2-0.3c-0.3,0.1-0.5,0.1-0.7,0.2c-0.4,0.2-0.7,0.1-0.9-0.2
	c-0.1-0.2-0.3-0.3-0.4-0.4c-3.7-3.8-18.1-18.2-21.8-22c-0.5-0.5-0.9-0.8-1.6-0.6c-0.4,0.1-0.7-0.1-0.9-0.3c-2.6-2.5-5.3-5.1-8-7.6
	c-3-2.9-5.9-5.7-8.9-8.6c-0.1-0.1-0.2-0.2-0.3-0.3c-0.6,0.3-1.2,0.7-1.8,1c-1.7,0.9-3.5,1.8-5.4,2.2c-3,0.7-5.8,0.5-8.5-0.7
	c-1.8-0.7-3.3-1.8-4.6-3.2c-1.4-1.3-2.5-2.8-3.6-4.4c-0.5-0.7-0.9-1.5-1.4-2.3c-0.9-1.4-1.8-2.7-2.6-4.1c-1.1-1.9-2-3.9-2.3-6.1
	c-0.3-2.2-0.1-4.3,0.9-6.4c0.6-1.4,1.5-2.7,2.5-3.9c1.7-1.9,3.4-3.7,5.3-5.4c1-0.9,1.9-1.7,3-2.5c1.9-1.3,3.9-2.2,6.2-2.4
	c1.9-0.1,3.8,0.1,5.6,0.8c2.1,0.8,4,1.9,5.9,3.2c0.9,0.7,1.9,1.2,2.9,1.8c1.7,1.1,3.3,2.3,4.7,3.7c1.1,1.1,2.1,2.3,2.9,3.6
	c1.2,1.9,1.7,4.1,1.8,6.4c0,2.2-0.4,4.3-1.4,6.3c-0.7,1.5-1.5,2.9-2.2,4.4c0,0,0.1,0.1,0.2,0.2c2.6,2.7,5.2,5.4,7.8,8.1
	c2.6,2.7,5.1,5.4,7.7,8.1c0.2,0.2,0.4,0.5,0.7,0.8c0.2,0.2,0.4,0.5,0.3,0.8c-0.2,0.7,0.1,1.2,0.6,1.7c3.7,3.7,18.1,18.1,21.9,21.8
	c0.6,0.6,1,1.2,0.5,2.1C334.4,444.1,334.5,444.1,334.5,444.2z M265.5,383.9c2.2-1.3,4.1-3,5.3-5.2c-0.6-0.6-1.2-1-2-1.2
	c-0.8-0.2-1.4-0.1-2,0.5c-0.7,0.7-1.4,1.4-2.1,2.1c-0.3,0.3-0.5,0.7-0.5,1.2C264.3,382.3,264.7,383.2,265.5,383.9z"/>
<g>
	<path class="st3" d="M133.6,378.3c109.5-35.6,227.4-35.6,336.8,0c7.7-23.8,15.5-47.6,23.2-71.4c-124.5-40.5-258.7-40.5-383.2,0
		C118.1,330.7,125.9,354.5,133.6,378.3z"/>
</g>
<g>
	<path class="st4" d="M146.9,350.7l-7.6-28l5.9-1.6l6.4,23.4l8.8-2.4l1.3,4.7L146.9,350.7z"/>
	<path class="st4" d="M163.8,346.2l-6.6-28.3l15.4-3.6l1,4.3l-9.5,2.2l1.6,7l8.8-2l1,4.3l-8.8,2l1.9,8.3l9.8-2.3l1,4.3L163.8,346.2z
		"/>
	<path class="st4" d="M180.2,327.5c-1.4-7.5-2.8-14.7,7-16.6c9.8-1.9,11.2,5.3,12.7,12.9c1.4,7.5,2.8,14.7-7,16.6
		C183,342.3,181.6,335,180.2,327.5z M193.8,324.9c-1.4-7.3-2.4-10.4-5.8-9.7c-3.4,0.6-3.2,3.9-1.8,11.2c1.4,7.3,2.4,10.4,5.8,9.7
		C195.4,335.5,195.2,332.2,193.8,324.9z"/>
	<path class="st4" d="M202.4,308.7l5.3-0.9l-1.6,8.3l-3.8,0.6L202.4,308.7z"/>
	<path class="st4" d="M223.7,335.3c-7.4,1-9.4-3.2-9.8-8.2l6-0.8c0.4,2.7,0.8,5,4.1,4.6c2-0.3,2.8-1.7,2.6-3.7
		c-0.7-5.2-12.9-3.8-14-12.4c-0.6-4.5,1-8.4,8.4-9.4c5.9-0.8,9.1,1.4,9.6,7.5l-5.9,0.8c-0.3-2.2-1-4.3-3.4-4c-2,0.3-3,1.5-2.7,3.5
		c0.8,5.5,12.8,3.3,14,12.4C233.6,333,228.2,334.7,223.7,335.3z"/>
	<path class="st4" d="M246.6,332l-2.6-28.9l6-0.6l2.2,24.1l9.1-0.8l0.4,4.8L246.6,332z"/>
	<path class="st4" d="M263,316c-0.4-7.7-0.8-15,9.2-15.5c10-0.6,10.4,6.7,10.8,14.4c0.4,7.6,0.8,15-9.2,15.5
		C263.8,331,263.4,323.6,263,316z M276.8,315.2c-0.4-7.4-1-10.6-4.5-10.4c-3.4,0.2-3.7,3.4-3.3,10.9c0.4,7.4,1,10.6,4.5,10.4
		C277,325.9,277.2,322.6,276.8,315.2z"/>
	<path class="st4" d="M287.8,314.7c-0.1-7.7-0.3-15,9.7-15.2c6.2-0.1,8.7,3.3,8.6,9.5l-6,0.1c-0.1-3.9-0.8-5.3-2.6-5.3
		c-3.4,0.1-3.8,3.3-3.7,10.7c0.1,7.4,0.6,10.6,4.1,10.6c2.8,0,2.6-3.7,2.7-6l6-0.1c0.1,7.8-2.9,10.3-8.6,10.4
		C288,329.7,287.9,322.3,287.8,314.7z"/>
	<path class="st4" d="M323.9,300.1l6.7,0.1l-8.4,12.9l7.8,16.2l-6.8-0.1l-6.7-15l-0.1,0l-0.3,14.9l-6.1-0.1l0.6-29l6.1,0.1
		l-0.2,12.4l0.1,0L323.9,300.1z"/>
	<path class="st4" d="M340.3,330.4c-7.5-0.4-8.7-4.9-8-9.9l6.1,0.4c-0.2,2.8-0.2,5.1,3.2,5.3c2,0.1,3.1-1.1,3.2-3.1
		c0.3-5.2-11.9-6.3-11.4-14.9c0.3-4.5,2.6-8,10-7.6c5.9,0.3,8.7,3.2,7.9,9.2l-5.9-0.3c0.1-2.2-0.1-4.4-2.6-4.5
		c-2-0.1-3.2,0.9-3.3,2.9c-0.3,5.5,11.9,5.7,11.4,14.8C350.5,330.1,345,330.6,340.3,330.4z"/>
	<path class="st4" d="M354.4,330.7l3.2-28.9l9.7,1.1l2.4,20.1l0.1,0l7-19.1l9.4,1l-3.2,28.9l-5.9-0.6l2.5-22.3l-0.1,0l-8,21.7
		l-5.8-0.6l-2.8-22.8l-0.1,0l-2.5,22.3L354.4,330.7z"/>
	<path class="st4" d="M387.5,334.7l4.4-28.7l6,0.9l-4.4,28.7L387.5,334.7z"/>
	<path class="st4" d="M420.6,310.9l-0.9,4.7l-6.6-1.2l-4.4,23.8l-6-1.1l4.4-23.8l-6.6-1.2l0.9-4.7L420.6,310.9z"/>
	<path class="st4" d="M434.6,326l2.6-11.3l5.9,1.4l-6.6,28.3l-5.9-1.4l2.9-12.6l-6.8-1.6l-2.9,12.6L418,340l6.6-28.3l5.9,1.4
		l-2.6,11.3L434.6,326z"/>
	<path class="st4" d="M448.8,348.2c-7.2-2.1-7.4-6.7-5.7-11.4l5.8,1.7c-0.8,2.7-1.3,4.9,1.9,5.9c2,0.6,3.3-0.4,3.8-2.3
		c1.4-5-10.2-8.7-7.9-17c1.2-4.4,4.3-7.3,11.4-5.2c5.7,1.6,7.8,5,5.7,10.7l-5.7-1.6c0.6-2.1,0.9-4.3-1.5-5c-1.9-0.5-3.3,0.2-3.9,2.1
		c-1.5,5.3,10.4,8.2,7.9,17C458.8,350.1,453.2,349.5,448.8,348.2z"/>
</g>
<g>
	<g>
		<path class="st4" d="M340.4,189.3h-2.2v-18.7c0-20-16.2-36.2-36.2-36.2c-20,0-36.2,16.2-36.2,36.2v18.7h-2.2
			c-0.5,0-0.9,0.4-0.9,0.9v61.4c0,0.5,0.4,0.9,0.9,0.9h76.7c0.5,0,0.9-0.4,0.9-0.9v-61.4C341.3,189.8,340.9,189.3,340.4,189.3z
			 M276.2,170.3c0-14.3,11.6-25.9,25.9-25.9c14.3,0,25.9,11.6,25.9,25.9v19.1h-51.7V170.3z"/>
	</g>
	<path class="st1" d="M309.8,237.9l-2.1-15.3c1.1-1.3,1.9-2.9,1.9-4.8c0-3.9-3.2-7.1-7.1-7.1c-3.9,0-7.1,3.2-7.1,7.1
		c0,1.8,0.6,3.4,1.7,4.6l-2.1,15.5H309.8z"/>
</g>
<path class="st4" d="M209,224c-4.3-4.4-15-1-15-1c0-6.6,9-8.3,9-8.3c-2.1-4.4-16-3.7-16-3.7c2.1-8.8,14.2-7.3,14.2-7.3
	s-21.3-4.7-25.2-14.7c-5-13,7.6,2.6,16.3-0.7C167,174,168.5,155.6,172,160c11,14,18.1,12.9,18.1,12.9C164.4,150.8,173,131,173,131
	c4.3,30.9,42.9,46.3,64.3,55.1s21.4,30.9,21.4,30.9c0,17.6-6.4,26.4-6.4,26.4S244,254,242,241c0,0-13,6-13.5,0.5c-0.3-3,2.5-4.5,3-6
	S222,240,216,238c0,0-5-2,3-6c6.4-3.2-6-2-7-2C212,230,189,232,209,224z"/>
<path class="st4" d="M394.8,224c4.3-4.4,15-1,15-1c0-6.6-9-8.3-9-8.3c2.1-4.4,16-3.7,16-3.7c-2.1-8.8-14.2-7.3-14.2-7.3
	s21.3-4.7,25.2-14.7c5-13-7.6,2.6-16.3-0.7c25.3-14.3,23.8-32.7,20.3-28.3c-11,14-18.1,12.9-18.1,12.9c25.7-22,17.2-41.9,17.2-41.9
	c-4.3,30.9-42.9,46.3-64.3,55.1s-21.4,30.9-21.4,30.9c0,17.6,6.4,26.4,6.4,26.4s8.3,10.6,10.3-2.4c0,0,13,6,13.5,0.5
	c0.3-3-2.5-4.5-3-6s9.5,4.5,15.5,2.5c0,0,5-2-3-6c-6.4-3.2,6-2,7-2C391.8,230,414.8,232,394.8,224z"/>
</svg>
