<?xml version="1.0" encoding="utf-8"?>
<!-- Generator: Adobe Illustrator 22.1.0, SVG Export Plug-In . SVG Version: 6.00 Build 0)  -->
<svg version="1.1" id="Layer_1" xmlns="http://www.w3.org/2000/svg" xmlns:xlink="http://www.w3.org/1999/xlink" x="0px" y="0px"
	 viewBox="0 0 600 600" style="enable-background:new 0 0 600 600;" xml:space="preserve">
<style type="text/css">
	.st0{fill:#FFFFFF;}
</style>
<path class="st0" d="M338.4,297.3h-2.2v-18.7c0-20-16.2-36.2-36.2-36.2c-20,0-36.2,16.2-36.2,36.2v18.7h-2.2c-0.5,0-0.9,0.4-0.9,0.9
	v61.4c0,0.5,0.4,0.9,0.9,0.9h76.7c0.5,0,0.9-0.4,0.9-0.9v-61.4C339.3,297.8,338.9,297.3,338.4,297.3z M293,345.9l2.1-15.5
	c-1.1-1.2-1.7-2.9-1.7-4.6c0-3.9,3.2-7.1,7.1-7.1s7.1,3.2,7.1,7.1c0,1.8-0.7,3.5-1.9,4.8l2.1,15.3H293z M325.9,297.3h-51.7v-19.1
	c0-14.3,11.6-25.9,25.9-25.9c14.3,0,25.9,11.6,25.9,25.9V297.3z"/>
<path class="st0" d="M207,332c-4.3-4.4-15-1-15-1c0-6.6,9-8.3,9-8.3c-2.1-4.4-16-3.7-16-3.7c2.1-8.8,14.2-7.3,14.2-7.3
	s-21.3-4.7-25.2-14.7c-5-13,7.6,2.6,16.3-0.7C165,282,166.5,263.6,170,268c11,14,18.1,12.9,18.1,12.9C162.4,258.8,171,239,171,239
	c4.3,30.9,42.9,46.3,64.3,55.1s21.4,30.9,21.4,30.9c0,17.6-6.4,26.4-6.4,26.4S242,362,240,349c0,0-13,6-13.5,0.5c-0.3-3,2.5-4.5,3-6
	S220,348,214,346c0,0-5-2,3-6c6.4-3.2-6-2-7-2C210,338,187,340,207,332z"/>
<path class="st0" d="M392.8,332c4.3-4.4,15-1,15-1c0-6.6-9-8.3-9-8.3c2.1-4.4,16-3.7,16-3.7c-2.1-8.8-14.2-7.3-14.2-7.3
	s21.3-4.7,25.2-14.7c5-13-7.6,2.6-16.3-0.7c25.3-14.3,23.8-32.7,20.3-28.3c-11,14-18.1,12.9-18.1,12.9c25.7-22,17.2-41.9,17.2-41.9
	c-4.3,30.9-42.9,46.3-64.3,55.1s-21.4,30.9-21.4,30.9c0,17.6,6.4,26.4,6.4,26.4s8.3,10.6,10.3-2.4c0,0,13,6,13.5,0.5
	c0.3-3-2.5-4.5-3-6s9.5,4.5,15.5,2.5c0,0,5-2-3-6c-6.4-3.2,6-2,7-2C389.8,338,412.8,340,392.8,332z"/>
</svg>
